<svg xmlns="http://www.w3.org/2000/svg" xml:space="preserve" version="1.0" viewBox="0 0 1201.9 441.6"><path fill="white" d="M605.1 234.9h53.3c14.3 0 24.9 3.2 31.7 9.7 5.5 5.5 8.2 12.9 8.2 22.3 0 9.2-2.5 16.6-7.6 22.3-2.2 2.4-4.6 4.3-7.3 5.8s-5.7 2.5-9.2 3c-3.5.6-6.3.9-8.4 1-2.1.1-5 .2-8.8.2h-19v24.3h-32.9v-88.6zm32.9 23.8v18h14.6c4.5 0 7.7-.8 9.8-2.5 2-1.7 3-4.1 3-7.2 0-2.6-.9-4.6-2.7-6-1.9-1.5-5.1-2.3-9.6-2.3H638zM535.6 259.4h-28.5v-24.5H597v24.5h-28.5v64.1h-32.9zM448.6 311l-4.8 12.5h-33.2l39.1-88.6h30.5l39.1 88.6h-33.2l-4.8-12.5h-32.7zm7.2-19.6h18.5l-9.4-25.2-9.1 25.2zM350.1 268.3h43.8v20.9h-43.8v10.9h56v23.4h-88.9v-88.6h87.6v23.4h-54.7zM247.8 259.4h-28.5v-24.5h89.9v24.5h-28.5v64.1h-32.9zM1131.2 426.5l-4.8 12.5h-33.2l39.1-88.6h30.5l39.1 88.6h-33.2l-4.8-12.5h-32.7zm7.2-19.6h18.5l-9.4-25.2-9.1 25.2zM1044.1 375h-28.4v-24.6h89.9V375h-28.5v64h-33zM954.6 383.8h43.9v20.9h-43.9v10.9h56V439h-88.9v-88.6h87.6v23.4h-54.7zM814.1 350.4h58.6c11.5 0 19.5 1.4 24.2 4.2 6 4.1 9 9.8 9 16.8 0 5.4-1.9 10-5.6 13.7-2.6 2.6-6.5 4.8-11.5 6.5v.5c6 1.2 10.8 3.3 14.4 6.2 5 4.1 7.5 9.5 7.5 16.5 0 7.7-2.9 13.8-8.6 18.2-5.1 4.1-14.5 6.1-28.4 6.1h-59.6v-88.7zm32.9 20v14.2h16.3c3.2 0 5.6-.5 7.2-1.6 1.8-1.2 2.7-3 2.7-5.6 0-2.5-.8-4.3-2.5-5.4-1.5-1-3.7-1.5-6.5-1.5H847zm0 32.5V419h18c4.1 0 7-.6 8.6-1.9 1.9-1.6 2.9-3.7 2.9-6.2 0-2.7-1.1-4.8-3.3-6.2-2.1-1.2-5-1.8-8.6-1.8H847zM799 373.9c2.9 5.7 4.4 12.6 4.4 20.8 0 8.2-1.5 15.1-4.4 20.8-2.9 5.7-6.3 10.1-10.2 13.3-10 8.4-23.6 12.7-40.8 12.7-17.2 0-30.8-4.2-40.8-12.7-3.9-3.2-7.3-7.6-10.2-13.3-2.9-5.7-4.4-12.6-4.4-20.8 0-8.2 1.5-15.1 4.4-20.8 2.9-5.7 6.3-10.1 10.2-13.3 10-8.4 23.6-12.7 40.8-12.7 17.2 0 30.8 4.2 40.8 12.7 3.9 3.3 7.3 7.7 10.2 13.3m-51-2.4c-5.6 0-10.2 1.7-13.8 5.2-4.1 4.1-6.1 10-6.1 18 0 7.9 2 13.9 6.1 18 3.6 3.5 8.2 5.2 13.8 5.2 5.6 0 10.2-1.7 13.8-5.2 4.1-4.1 6.1-10 6.1-18 0-7.9-2-13.9-6.1-18-3.6-3.4-8.2-5.2-13.8-5.2M654.2 406.4H687c-.5 12.4-5.9 21.8-16.1 28.1-7.5 4.7-18.7 7.1-33.6 7.1-8.6 0-16.3-.9-22.9-2.6-6.7-1.7-12.7-5.2-18-10.4-8.4-8-12.5-19-12.5-32.9 0-14.7 4.2-26.1 12.7-34.2 5.6-5.4 11.6-9 18.2-10.7 6.6-1.7 13.8-2.6 21.8-2.6 16.5 0 28.7 2.8 36.3 8.5 8.6 6.2 13.2 14.9 13.7 25.8h-33c-.3-3.5-1.8-6.2-4.3-8-2.7-1.9-6.2-2.8-10.4-2.8-6.2 0-10.8 1.8-13.9 5.3-3.7 4.1-5.6 10.3-5.6 18.6 0 7.9 1.9 13.7 5.7 17.5 3.3 3.3 7.9 4.9 13.9 4.9 4.8 0 8.6-1.2 11.3-3.5 2.3-2.4 3.6-5.1 3.9-8.1M545.4 406.4h32.8c-.5 12.4-5.9 21.8-16.1 28.1-7.5 4.7-18.7 7.1-33.6 7.1-8.6 0-16.3-.9-22.9-2.6-6.7-1.7-12.7-5.2-18-10.4-8.4-8-12.5-19-12.5-32.9 0-14.7 4.2-26.1 12.7-34.2 5.6-5.4 11.6-9 18.2-10.7 6.6-1.7 13.8-2.6 21.8-2.6 16.5 0 28.7 2.8 36.3 8.5 8.6 6.2 13.2 14.9 13.7 25.8h-33c-.3-3.5-1.8-6.2-4.3-8-2.7-1.9-6.2-2.8-10.4-2.8-6.2 0-10.8 1.8-13.9 5.3-3.7 4.1-5.6 10.3-5.6 18.6 0 7.9 1.9 13.7 5.7 17.5 3.3 3.3 7.9 4.9 13.9 4.9 4.8 0 8.6-1.2 11.3-3.5 2.3-2.4 3.6-5.1 3.9-8.1M463.5 373.9c2.9 5.7 4.4 12.6 4.4 20.8 0 8.2-1.5 15.1-4.4 20.8-2.9 5.7-6.3 10.1-10.2 13.3-10 8.4-23.6 12.7-40.8 12.7-17.2 0-30.8-4.2-40.8-12.7-3.9-3.2-7.3-7.6-10.2-13.3-2.9-5.7-4.4-12.6-4.4-20.8 0-8.2 1.5-15.1 4.4-20.8 2.9-5.7 6.3-10.1 10.2-13.3 10-8.4 23.6-12.7 40.8-12.7 17.2 0 30.8 4.2 40.8 12.7 3.9 3.3 7.3 7.7 10.2 13.3m-51-2.4c-5.6 0-10.2 1.7-13.8 5.2-4.1 4.1-6.1 10-6.1 18 0 7.9 2 13.9 6.1 18 3.6 3.5 8.2 5.2 13.8 5.2 5.6 0 10.2-1.7 13.8-5.2 4.1-4.1 6.1-10 6.1-18 0-7.9-2-13.9-6.1-18-3.6-3.4-8.2-5.2-13.8-5.2M273.3 439l-20.1-58.2H252l1.2 8.3V439h-30.9v-88.6h43.3l16.8 48.6 1.4 7.6h.9l1.5-7.5 16.7-48.7h43.3V439h-30.9v-49.9l1.2-8.3h-1.2L295.2 439z"/><path fill="#9E1D20" d="M168.6 0 84.3 171.4 0 0v439.8h56.2V321.5L84.3 366l28.1-44.5v118.3h56.2z"/></svg>